:version 1.10
:name ASF
:units
  mass 1
  length 1
  angle deg
:documentation
  ASF file generated by Kaydara
:root
  axis xyz
  order  tx ty tz rx ry rz
  position 0 0 0
  orientation 0 0 0
:bonedata
  begin
    id 1
    name SpineDummy
    direction 0.999998 -0.00179978 1.38929e-006
    length 3.60008
    axis 0 0 0 xyz
  end
  begin
    id 2
    name Spine
    direction 0.964365 0.262802 0.0305839
    length 8.13928
    axis 1.33928 -1.75354 15.2838 xyz
    dof rx ry rz
  end
  begin
    id 3
    name Spine1
    direction 0.811168 0.572065 0.12144
    length 7.14954
    axis 2.2224 -6.9761 35.2157 xyz
    dof rx ry rz
  end
  begin
    id 4
    name Neck
    direction 0 0 0
    length 0
    axis 2.2224 -6.9761 35.2157 xyz
    dof rx ry rz
  end
  begin
    id 5
    name HeadDummy
    direction 0.810939 0.572387 0.121455
    length 3.55534
    axis 2.2224 -6.9761 35.2157 xyz
  end
  begin
    id 6
    name Head
    direction 0.998226 -0.000232542 0.0595419
    length 7.35666
    axis -3.03688 -3.41352 -0.0133467 xyz
    dof rx ry rz
  end
  begin
    id 7
    name R_ClavicleDummy
    direction 0.531669 -0.194489 -0.824319
    length 2.49392
    axis 2.2224 -6.9761 35.2157 xyz
  end
  begin
    id 8
    name R_Clavicle
    direction -0.155119 0.0480802 -0.986725
    length 4.485
    axis -54.2764 80.6538 162.779 xyz
    dof rx ry rz
  end
  begin
    id 9
    name R_UpperArm
    direction -0.955567 0.200068 -0.216484
    length 10.1122
    axis -72.9943 12.5026 168.175 xyz
    dof rx ry rz
  end
  begin
    id 10
    name R_Forearm
    direction -0.61433 0.385743 0.688332
    length 9.39148
    axis -117.015 -43.4982 147.875 xyz
    dof rx ry rz
  end
  begin
    id 11
    name R_Hand
    direction -0.699429 0.0170333 0.714499
    length 3.66324
    axis -45.0303 -36.7097 175.478 xyz
    dof rx ry rz
  end
  begin
    id 12
    name L_ClavicleDummy
    direction 0.40287 -0.36502 0.839319
    length 2.49392
    axis 2.2224 -6.9761 35.2157 xyz
  end
  begin
    id 13
    name L_Clavicle
    direction -0.231271 -0.0726419 0.970174
    length 4.485
    axis 18.4357 -75.9711 -162.563 xyz
    dof rx ry rz
  end
  begin
    id 14
    name L_UpperArm
    direction -0.917494 0.144359 0.370629
    length 10.1122
    axis 56.0417 -21.7544 171.058 xyz
    dof rx ry rz
  end
  begin
    id 15
    name L_Forearm
    direction -0.496786 0.615074 -0.612281
    length 9.39148
    axis 89.8094 37.7546 128.927 xyz
    dof rx ry rz
  end
  begin
    id 16
    name L_Hand
    direction -0.409932 0.64962 -0.640274
    length 3.66324
    axis -0.424369 32.133 128.52 xyz
    dof rx ry rz
  end
  begin
    id 17
    name L_ThighDummy
    direction -1.84081e-006 1.87549e-006 1
    length 3.13049
    axis 0 0 0 xyz
  end
  begin
    id 18
    name L_Thigh
    direction -0.947739 0.307978 0.083308
    length 17.9961
    axis 173.219 -4.77873 161.998 xyz
    dof rx ry rz
  end
  begin
    id 19
    name L_Calf
    direction -0.728814 -0.684427 0.0197583
    length 13.3367
    axis 167.331 -1.13214 -136.799 xyz
    dof rx ry rz
  end
  begin
    id 20
    name L_Foot
    direction -0.9028 0.418719 0.0981191
    length 5.8674
    axis 163.436 11.5135 -155.37 xyz
    dof rx ry rz
  end
  begin
    id 21
    name L_Toe0
    direction -0.35341 0.886259 0.299411
    length 4.75286
    axis 169.316 -17.4222 111.74 xyz
    dof rx ry rz
  end
  begin
    id 22
    name R_ThighDummy
    direction 9.32778e-007 -8.82053e-007 -1
    length 3.13049
    axis 0 0 0 xyz
  end
  begin
    id 23
    name R_Thigh
    direction -0.925064 0.37528 -0.0585023
    length 17.9961
    axis -178.698 3.35385 157.919 xyz
    dof rx ry rz
  end
  begin
    id 24
    name R_Calf
    direction -0.68969 -0.718776 -0.0876886
    length 13.3367
    axis -160.504 5.03065 -133.817 xyz
    dof rx ry rz
  end
  begin
    id 25
    name R_Foot
    direction -0.857405 0.418858 -0.299022
    length 5.8674
    axis -161.328 4.38911 -154.413 xyz
    dof rx ry rz
  end
  begin
    id 26
    name R_Toe0
    direction -0.100745 0.952789 -0.286433
    length 4.75286
    axis 171.683 16.6445 96.0359 xyz
    dof rx ry rz
  end
:hierarchy
  begin
    root SpineDummy L_ThighDummy R_ThighDummy
    SpineDummy Spine
    Spine Spine1
    Spine1 Neck
    Neck HeadDummy R_ClavicleDummy L_ClavicleDummy
    HeadDummy Head
    R_ClavicleDummy R_Clavicle
    R_Clavicle R_UpperArm
    R_UpperArm R_Forearm
    R_Forearm R_Hand
    L_ClavicleDummy L_Clavicle
    L_Clavicle L_UpperArm
    L_UpperArm L_Forearm
    L_Forearm L_Hand
    L_ThighDummy L_Thigh
    L_Thigh L_Calf
    L_Calf L_Foot
    L_Foot L_Toe0
    R_ThighDummy R_Thigh
    R_Thigh R_Calf
    R_Calf R_Foot
    R_Foot R_Toe0
  end

:SAMPLES-PER-SECOND 30
:FULLY-SPECIFIED
:DEGREES
1
root  -3.25646 32.8939 -57.1709 95.6466 3.69454 90.8961
Spine  -1.58114 -2.29285 -29.9046
Spine1  -0.696308 9.57217 7.56218
Neck  3.97569e-016 0 -2.38542e-015
Head  12.1267 -10.2418 35.557
R_Clavicle  0.461859 -19.8544 3.92792
R_UpperArm  38.9473 -7.23339 33.0939
R_Forearm  -1.24346 -42.3028 27.184
R_Hand  -1.07276 7.67141 -19.4153
L_Clavicle  -0.495031 18.6555 1.45676
L_UpperArm  -13.5129 13.804 18.1613
L_Forearm  15.1272 42.1354 41.3292
L_Hand  0.0745817 -1.31015 1.8676
L_Thigh  -5.02256 0.758646 -14.1968
L_Calf  -1.76684 -6.54516 28.5316
L_Foot  5.58583 11.2665 9.24292
L_Toe0  0.505156 0.034446 -6.1361
R_Thigh  8.54241 2.72959 -17.2764
R_Calf  1.63619 11.4368 33.3117
R_Foot  -1.39579 -2.41882 5.00961
R_Toe0  -1.78853 -0.272788 -17.3235
2
root  -3.27122 32.9322 -57.1706 95.5172 3.60517 90.8884
Spine  -1.55983 -2.12213 -29.7164
Spine1  -0.72718 9.49384 7.20277
Neck  3.97569e-016 0 -2.38542e-015
Head  12.2665 -10.3354 35.5578
R_Clavicle  0.460559 -19.9393 3.93211
R_UpperArm  38.9593 -7.24627 33.1983
R_Forearm  -1.14295 -42.325 27.2213
R_Hand  -1.07551 7.87993 -19.4783
L_Clavicle  -0.495657 18.6849 1.45072
L_UpperArm  -13.3237 13.886 18.2866
L_Forearm  14.6512 41.926 41.1785
L_Hand  0.0767299 -1.46917 1.98726
L_Thigh  -5.04601 0.82389 -14.3513
L_Calf  -1.86779 -6.75029 29.0701
L_Foot  5.52348 11.3715 8.93737
L_Toe0  0.505156 0.034446 -6.1361
R_Thigh  8.93181 2.67177 -17.3931
R_Calf  1.27587 11.5099 33.8171
R_Foot  -1.43238 -2.63497 4.75995
R_Toe0  -1.78853 -0.272788 -17.3235
3
root  -3.30406 33.0231 -57.1752 95.3225 3.3971 90.8751
Spine  -1.54175 -1.79766 -29.3022
Spine1  -0.796743 9.35078 6.43626
Neck  3.97569e-016 0 -2.38542e-015
Head  12.45 -10.4581 35.5255
R_Clavicle  0.457911 -20.0702 3.90853
R_UpperArm  38.9564 -7.33499 33.4635
R_Forearm  -0.796113 -42.2794 27.1668
R_Hand  -1.08609 7.92075 -19.5634
L_Clavicle  -0.496601 18.6317 1.37564
L_UpperArm  -13.1739 14.1521 18.5301
L_Forearm  13.7311 41.5764 40.9838
L_Hand  0.0687024 -1.46754 1.76012
L_Thigh  -4.98794 0.956826 -14.6925
L_Calf  -2.16399 -7.255 30.3601
L_Foot  5.36902 11.6397 8.17812
L_Toe0  0.505156 0.034446 -6.1361
R_Thigh  9.15727 2.62136 -17.6679
R_Calf  1.20137 11.9353 34.9913
R_Foot  -1.47235 -3.04282 4.10822
R_Toe0  -1.78853 -0.272788 -17.3235
4
root  -3.33659 33.1225 -57.2104 95.2276 2.96187 90.8035
Spine  -1.59568 -1.34083 -28.8872
Spine1  -0.903666 9.18133 5.50061
Neck  3.97569e-016 0 -2.38542e-015
Head  12.518 -10.5039 35.4112
R_Clavicle  0.456054 -20.1744 3.89989
R_UpperArm  38.7598 -7.47903 33.8081
R_Forearm  -0.0560767 -41.976 26.7391
R_Hand  -1.06704 7.90808 -19.4076
L_Clavicle  -0.497539 18.4715 1.2156
L_UpperArm  -12.6381 14.502 18.8849
L_Forearm  12.2186 40.9517 40.581
L_Hand  0.0491746 -1.19835 1.17304
L_Thigh  -4.93297 1.08276 -14.7755
L_Calf  -2.44701 -7.77278 31.7482
L_Foot  5.19919 11.977 7.31162
L_Toe0  0.505156 0.034446 -6.1361
R_Thigh  8.43861 2.67046 -17.7225
R_Calf  2.03422 12.8131 36.2474
R_Foot  -1.4869 -3.45751 3.30112
R_Toe0  -1.78853 -0.272788 -17.3235
5
root  -3.35 33.1722 -57.3019 95.3258 2.19564 90.8419
Spine  -1.70638 -1.03789 -28.457
Spine1  -1.04932 9.10538 4.40802
Neck  3.97569e-016 0 -2.38542e-015
Head  12.5856 -10.5113 35.0274
R_Clavicle  0.457319 -20.1201 3.91951
R_UpperArm  38.2252 -7.78656 34.1288
R_Forearm  1.44834 -41.0267 25.6914
R_Hand  -0.976105 8.25176 -18.7547
L_Clavicle  -0.497077 18.2442 1.03424
L_UpperArm  -11.2318 14.8396 19.3201
L_Forearm  10.0019 39.7897 39.805
L_Hand  0.0344057 -1.0561 0.780266
L_Thigh  -4.98767 0.908461 -14.1466
L_Calf  -2.46005 -7.98211 32.4439
L_Foot  5.09979 12.244 6.74484
L_Toe0  0.505156 0.034446 -6.1361
R_Thigh  6.77559 2.68098 -16.9999
R_Calf  3.62113 13.6775 36.6394
R_Foot  -1.4587 -3.58848 2.83693
R_Toe0  -1.78853 -0.272788 -17.3235
6
root  -3.34435 33.1533 -57.4566 95.5311 1.36228 91.1371
Spine  -1.83187 -0.95365 -27.4474
Spine1  -1.24198 9.07933 2.98751
Neck  3.97569e-016 0 -2.38542e-015
Head  13.0188 -10.5952 34.0529
R_Clavicle  0.459997 -19.9525 3.91593
R_UpperArm  36.7961 -8.14077 34.36
R_Forearm  4.43947 -39.1981 24.1747
R_Hand  -0.860461 8.75464 -17.981
L_Clavicle  -0.495956 18.0974 0.939209
L_UpperArm  -8.9492 14.9975 19.7523
L_Forearm  7.10669 38.0544 38.806
L_Hand  0.0329951 -1.24905 0.758905
L_Thigh  -5.12805 0.3286 -12.9826
L_Calf  -2.23218 -7.81987 32.2085
L_Foot  5.08468 12.358 6.59083
L_Toe0  0.505156 0.034446 -6.1361
R_Thigh  5.1424 2.55664 -15.5708
R_Calf  5.10577 13.8658 35.8316
R_Foot  -1.36837 -3.26747 2.91007
R_Toe0  -1.78853 -0.272788 -17.3235
7
root  -3.33532 33.0887 -57.6684 95.6433 0.912249 91.3749
Spine  -2.02752 -0.293507 -25.3473
Spine1  -1.52092 8.65802 1.28866
Neck  3.97569e-016 0 -2.38542e-015
Head  14.1175 -10.8104 32.38
R_Clavicle  0.459338 -19.9609 3.89079
R_UpperArm  34.0486 -7.9793 34.3235
R_Forearm  8.74046 -36.9877 22.7667
R_Hand  -0.848564 8.91465 -17.9229
L_Clavicle  -0.497774 18.2287 0.986243
L_UpperArm  -6.20069 14.752 20.1349
L_Forearm  3.75354 35.9351 37.8586
L_Hand  0.0318025 -1.50323 0.751467
L_Thigh  -5.50885 -0.19218 -11.7551
L_Calf  -1.8129 -7.32212 31.1766
L_Foot  5.13835 12.3079 6.80601
L_Toe0  0.505156 0.034446 -6.1361
R_Thigh  4.30701 2.5388 -14.1476
R_Calf  5.8966 13.4533 34.4884
R_Foot  -1.25174 -2.77503 3.17791
R_Toe0  -1.78853 -0.272788 -17.3235
8
root  -3.3329 33.002 -57.9367 95.6041 0.881508 91.1929
Spine  -2.2914 1.53913 -22.4913
Spine1  -1.878 7.60843 -0.201422
Neck  3.97569e-016 0 -2.38542e-015
Head  15.8439 -11.1711 30.2528
R_Clavicle  0.456191 -20.1587 3.89507
R_UpperArm  30.6837 -6.9465 33.6428
R_Forearm  12.7081 -35.264 21.8535
R_Hand  -0.947805 8.83338 -18.635
L_Clavicle  -0.502905 18.567 1.05987
L_UpperArm  -3.84071 14.2482 20.4073
L_Forearm  0.627043 33.6335 37.1194
L_Hand  0.0253994 -1.58152 0.576417
L_Thigh  -6.64716 -0.286499 -10.4997
L_Calf  -0.884278 -6.22237 29.5343
L_Foot  5.23416 12.0912 7.31256
L_Toe0  0.505156 0.034446 -6.1361
R_Thigh  4.33896 2.82292 -13.0255
R_Calf  5.91767 12.9409 33.2226
R_Foot  -1.19038 -2.50754 3.34573
R_Toe0  -1.78853 -0.272788 -17.3235
9
root  -3.33536 32.8905 -58.2537 95.6654 0.938813 90.7273
Spine  -2.51728 3.69817 -19.7343
Spine1  -2.19624 6.70918 -0.801561
Neck  3.97569e-016 0 -2.38542e-015
Head  17.8766 -11.686 27.8348
R_Clavicle  0.457748 -20.006 3.85084
R_UpperArm  27.7293 -5.42003 32.0763
R_Forearm  15.2647 -34.0769 21.3407
R_Hand  -0.997752 9.00033 -19.019
L_Clavicle  -0.507397 18.6249 0.92241
L_UpperArm  -3.00823 14.1025 20.2687
L_Forearm  -1.49583 31.4591 36.6151
L_Hand  0.0176991 -1.57228 0.35947
L_Thigh  -8.04853 -0.295082 -8.9447
L_Calf  0.187177 -4.42736 27.503
L_Foot  5.28938 11.6217 7.94323
L_Toe0  0.505156 0.034446 -6.1361
R_Thigh  5.51537 3.17998 -11.8764
R_Calf  4.97035 12.2709 31.9313
R_Foot  -1.21618 -2.49968 3.5465
R_Toe0  -1.78853 -0.272788 -17.3235
10
root  -3.34241 32.7322 -58.5783 96.1561 1.0366 90.6172
Spine  -2.63309 4.55577 -17.5237
Spine1  -2.32528 7.00334 -0.00413608
Neck  3.97569e-016 0 -2.38542e-015
Head  19.8194 -12.1432 25.0558
R_Clavicle  0.464048 -19.0836 3.56406
R_UpperArm  25.2757 -3.9056 29.8848
R_Forearm  17.218 -32.5759 21.0438
R_Hand  -0.888093 9.25467 -18.2713
L_Clavicle  -0.499547 17.8865 0.491402
L_UpperArm  -3.92682 14.6439 19.2009
L_Forearm  -2.67217 29.9484 36.3075
L_Hand  0.00470017 -1.51609 -0.00462632
L_Thigh  -7.17619 -0.887274 -7.36282
L_Calf  -0.579909 -3.27095 25.3221
L_Foot  5.26058 10.9019 8.57328
L_Toe0  0.512318 0.0350587 -6.20559
R_Thigh  8.00467 3.07904 -10.5475
R_Calf  3.11702 10.8538 30.1053
R_Foot  -1.26338 -2.37337 4.17652
R_Toe0  -1.78853 -0.272788 -17.3235
11
root  -3.36024 32.5241 -58.8465 97.1002 1.48705 91.0873
Spine  -2.68375 3.9658 -15.7957
Spine1  -2.18367 8.28152 2.19951
Neck  3.97569e-016 0 -2.38542e-015
Head  21.3357 -12.0787 22.2773
R_Clavicle  0.458596 -17.7636 3.01944
R_UpperArm  22.511 -2.3845 27.6025
R_Forearm  19.8854 -30.1701 20.8809
R_Hand  -0.730655 9.07131 -17.1065
L_Clavicle  -0.464422 16.3991 -0.0309069
L_UpperArm  -4.94477 15.2784 17.1069
L_Forearm  -3.63119 29.3967 36.1798
L_Hand  -0.0205307 -1.22573 -0.642249
L_Thigh  -4.82249 -1.91264 -5.99438
L_Calf  -2.23011 -3.02058 22.3649
L_Foot  5.1699 10.2838 8.91492
L_Toe0  0.452484 0.0313076 -5.6283
R_Thigh  10.5593 2.51545 -9.48299
R_Calf  1.56119 8.868 27.7256
R_Foot  -1.23503 -1.82923 5.28561
R_Toe0  -1.78853 -0.272788 -17.3235
12
root  -3.38644 32.2842 -59.0082 98.1668 2.38282 91.6618
Spine  -2.73655 3.39425 -14.5308
Spine1  -1.86614 9.27332 5.20777
Neck  3.97569e-016 0 -2.38542e-015
Head  22.2644 -11.369 20.4226
R_Clavicle  0.440864 -16.7813 2.51662
R_UpperArm  18.8846 -0.696533 25.4851
R_Forearm  23.2344 -27.0473 20.7915
R_Hand  -0.688402 8.7021 -16.6854
L_Clavicle  -0.41434 14.8516 -0.43882
L_UpperArm  -3.98724 15.146 14.8726
L_Forearm  -4.53197 29.3444 36.1
L_Hand  -0.0473459 -0.668242 -1.14017
L_Thigh  -3.38483 -2.74482 -3.88283
L_Calf  -2.6585 -2.31092 16.7766
L_Foot  4.76695 10.0142 7.86502
L_Toe0  0.102156 0.014178 -2.2153
R_Thigh  11.3853 1.99537 -9.05103
R_Calf  1.4976 7.5849 25.0761
R_Foot  -1.14258 -1.04924 6.61458
R_Toe0  -1.78853 -0.272788 -17.3235
13
root  -3.40151 32.0376 -59.0415 98.9987 3.43636 91.9781
Spine  -2.82564 3.68983 -13.8924
Spine1  -1.5973 9.287 8.21935
Neck  3.97569e-016 0 -2.38542e-015
Head  22.8752 -10.4198 20.2374
R_Clavicle  0.434229 -16.309 2.36521
R_UpperArm  15.6918 0.860689 23.3773
R_Forearm  25.6252 -23.8989 20.4358
R_Hand  -0.727383 8.75971 -16.9407
L_Clavicle  -0.379784 13.9593 -0.714796
L_UpperArm  -0.906173 14.2562 13.7445
L_Forearm  -4.87626 28.8919 35.8189
L_Hand  -0.0546883 -0.07518 -1.13096
L_Thigh  -2.71051 -3.06063 -1.9588
L_Calf  -2.51075 -1.59091 11.3288
L_Foot  4.28372 10.0229 6.24428
L_Toe0  -0.338046 0.026193 1.79259
R_Thigh  11.3501 1.77145 -9.10732
R_Calf  1.91229 6.91038 22.5862
R_Foot  -1.04977 -0.307753 7.98252
R_Toe0  -1.78853 -0.272788 -17.3235
14
root  -3.38509 31.8136 -58.9519 99.5379 4.38377 92.2507
Spine  -2.9449 4.25301 -13.8157
Spine1  -1.46946 8.70218 10.7269
Neck  3.97569e-016 0 -2.38542e-015
Head  23.5095 -9.88827 21.1634
R_Clavicle  0.443335 -15.9024 2.50765
R_UpperArm  15.3394 1.76677 21.1383
R_Forearm  25.6211 -21.5613 19.2459
R_Hand  -0.724949 9.07331 -17.0349
L_Clavicle  -0.377822 13.9736 -0.860083
L_UpperArm  2.18901 13.3243 14.1736
L_Forearm  -4.50711 27.9258 35.394
L_Hand  -0.0535522 0.384403 -1.00022
L_Thigh  -2.59962 -3.07769 -0.595789
L_Calf  -2.42006 -1.05135 7.28394
L_Foot  3.70236 9.51744 4.75438
L_Toe0  -0.233921 -0.0340693 4.64397
R_Thigh  11.4246 1.55039 -9.43384
R_Calf  2.04684 6.29249 20.4966
R_Foot  -0.961044 0.371463 9.34651
R_Toe0  -1.78853 -0.272788 -17.3235
15
root  -3.33744 31.6371 -58.762 99.9774 5.18714 92.69
Spine  -3.03084 4.45335 -13.989
Spine1  -1.3963 8.04939 12.4969
Neck  3.97569e-016 0 -2.38542e-015
Head  24.2269 -9.96757 22.2176
R_Clavicle  0.457036 -15.3997 2.69985
R_UpperArm  16.8495 2.02561 19.0146
R_Forearm  24.6354 -20.089 17.6626
R_Hand  -0.69758 9.03437 -16.8569
L_Clavicle  -0.406024 14.7277 -0.827868
L_UpperArm  3.28334 12.8072 15.5983
L_Forearm  -3.97068 27.4949 35.2065
L_Hand  -0.0630437 0.475464 -1.15274
L_Thigh  -2.702 -3.04015 0.352364
L_Calf  -2.55504 -0.641522 4.27644
L_Foot  2.82304 7.50855 3.63883
L_Toe0  1.2135 -0.320717 5.17732
R_Thigh  11.3857 1.1563 -10.0398
R_Calf  2.23203 5.80267 18.8643
R_Foot  -0.830728 1.0867 10.618
R_Toe0  -1.78853 -0.272788 -17.3235
